<svg id="Capa_1" enable-background="new 0 0 512 512" height="512" viewBox="0 0 512 512" width="512" xmlns="http://www.w3.org/2000/svg"><g><path d="m323.564 467.037h-316.064v-32.541c0-10.115 8.2-18.315 18.315-18.315h279.435c10.115 0 18.315 8.2 18.315 18.315v32.541z" fill="#26457d"/><path d="m305.249 416.181h-25.044c10.115 0 18.315 8.2 18.315 18.315v32.541h25.044v-32.541c0-10.115-8.2-18.315-18.315-18.315z" fill="#21386b"/><path d="m178.301 416.181h-69.809v-75.371c0-19.277 15.627-34.905 34.904-34.905 19.277 0 34.904 15.627 34.904 34.905v75.371z" fill="#f9f6f6"/><path d="m143.397 305.905c-3.631 0-7.131.555-10.423 1.584 14.186 4.433 24.482 17.674 24.482 33.32v75.371h20.846v-75.37c-.001-19.277-15.628-34.905-34.905-34.905z" fill="#dddaec"/><path d="m274.229 416.181h-29.83v-9.729c0-8.237 6.678-14.915 14.915-14.915 8.237 0 14.915 6.678 14.915 14.915z" fill="#ffe07d"/><path d="m259.314 365.454c-8.237 0-14.915-6.678-14.915-14.915v-9.729h29.83v9.729c0 8.238-6.678 14.915-14.915 14.915z" fill="#ffe07d"/><path d="m424.664 337.73h39.35v31.363h-39.35z" fill="#e7a561"/><path d="m446.173 337.73h17.842v31.363h-17.842z" fill="#e49542"/><path d="m481.745 337.73h-74.811c-2.308 0-4.179-1.871-4.179-4.179v-21.2c0-2.308 1.871-4.179 4.179-4.179h74.811c2.308 0 4.179 1.871 4.179 4.179v21.2c0 2.308-1.871 4.179-4.179 4.179z" fill="#ffe07d"/><path d="m481.745 308.172h-21.909c2.308 0 4.179 1.871 4.179 4.179v21.2c0 2.308-1.871 4.179-4.179 4.179h21.909c2.308 0 4.179-1.871 4.179-4.179v-21.2c0-2.308-1.871-4.179-4.179-4.179z" fill="#ffd064"/><path d="m482.077 44.962h-222.11c-12.384 0-22.423 10.039-22.423 22.423v146.228c0 12.384 10.039 22.423 22.423 22.423h10.265c2.551 0 4.381 2.457 3.651 4.901l-8.188 27.401c-.798 2.67 2.12 4.915 4.496 3.461l53.221-32.568c3.414-2.089 7.338-3.195 11.341-3.195h147.324c12.384 0 22.423-10.039 22.423-22.423v-146.228c0-12.384-10.04-22.423-22.423-22.423z" fill="#95d6a4"/><g><path d="m482.077 44.962h-25.937c12.384 0 22.423 10.039 22.423 22.423v146.228c0 12.384-10.039 22.423-22.423 22.423h25.937c12.384 0 22.423-10.039 22.423-22.423v-146.228c0-12.384-10.04-22.423-22.423-22.423z" fill="#78c2a4"/></g><g><path d="m143.396 330.435c-4.143 0-7.5 3.357-7.5 7.5v8.721c0 4.143 3.357 7.5 7.5 7.5s7.5-3.357 7.5-7.5v-8.721c0-4.143-3.357-7.5-7.5-7.5z"/><path d="m280.232 99.598h18.287c4.143 0 7.5-3.357 7.5-7.5s-3.357-7.5-7.5-7.5h-18.287c-4.143 0-7.5 3.357-7.5 7.5s3.358 7.5 7.5 7.5z"/><path d="m469.312 92.098c0-4.143-3.357-7.5-7.5-7.5h-18.287c-4.143 0-7.5 3.357-7.5 7.5s3.357 7.5 7.5 7.5h18.287c4.142 0 7.5-3.358 7.5-7.5z"/><path d="m347.138 75.266c-4.143 0-7.5 3.357-7.5 7.5v13.752c0 4.143 3.357 7.5 7.5 7.5s7.5-3.357 7.5-7.5v-13.752c0-4.143-3.358-7.5-7.5-7.5z"/><path d="m399.997 75.266c-4.143 0-7.5 3.357-7.5 7.5v13.752c0 4.143 3.357 7.5 7.5 7.5s7.5-3.357 7.5-7.5v-13.752c0-4.143-3.357-7.5-7.5-7.5z"/><path d="m345.782 135.811c0 4.143 3.357 7.5 7.5 7.5h18.287c4.143 0 7.5-3.357 7.5-7.5s-3.357-7.5-7.5-7.5h-18.287c-4.142 0-7.5 3.357-7.5 7.5z"/><path d="m429.968 128.311h-18.287c-4.143 0-7.5 3.357-7.5 7.5s3.357 7.5 7.5 7.5h18.287c4.143 0 7.5-3.357 7.5-7.5s-3.358-7.5-7.5-7.5z"/><path d="m312.075 147.731c4.143 0 7.5-3.357 7.5-7.5v-13.753c0-4.143-3.357-7.5-7.5-7.5s-7.5 3.357-7.5 7.5v13.753c0 4.143 3.358 7.5 7.5 7.5z"/><path d="m280.232 187.023h18.287c4.143 0 7.5-3.357 7.5-7.5s-3.357-7.5-7.5-7.5h-18.287c-4.143 0-7.5 3.357-7.5 7.5s3.358 7.5 7.5 7.5z"/><path d="m339.638 183.944c0 4.143 3.357 7.5 7.5 7.5s7.5-3.357 7.5-7.5v-13.753c0-4.143-3.357-7.5-7.5-7.5s-7.5 3.357-7.5 7.5z"/><path d="m392.497 183.944c0 4.143 3.357 7.5 7.5 7.5s7.5-3.357 7.5-7.5v-13.753c0-4.143-3.357-7.5-7.5-7.5s-7.5 3.357-7.5 7.5z"/><path d="m443.816 170.191v13.753c0 4.143 3.357 7.5 7.5 7.5s7.5-3.357 7.5-7.5v-13.753c0-4.143-3.357-7.5-7.5-7.5s-7.5 3.358-7.5 7.5z"/><path d="m481.745 300.672h-22.827c-4.143 0-7.5 3.357-7.5 7.5s3.357 7.5 7.5 7.5h19.506v14.558h-68.169v-14.558h19.876c4.143 0 7.5-3.357 7.5-7.5s-3.357-7.5-7.5-7.5h-23.196c-6.44 0-11.68 5.239-11.68 11.679v21.2c0 6.439 5.239 11.679 11.68 11.679h10.229v16.363h-27.76c-19.732 0-19.418-28.282-48.144-28.282h-156.137c-3.553-19.816-20.905-34.905-41.727-34.905-23.382 0-42.404 19.022-42.404 42.405v67.87h-46.09v-8.701h4.085c4.143 0 7.5-3.357 7.5-7.5s-3.357-7.5-7.5-7.5h-4.085v-4.511c0-4.143-3.357-7.5-7.5-7.5s-7.5 3.357-7.5 7.5v4.511h-4.085c-4.143 0-7.5 3.357-7.5 7.5s3.357 7.5 7.5 7.5h4.085v8.701h-14.088c-14.234 0-25.814 11.581-25.814 25.815v32.541c0 4.143 3.357 7.5 7.5 7.5h24.509c4.143 0 7.5-3.357 7.5-7.5s-3.357-7.5-7.5-7.5h-17.009v-25.041c0-5.964 4.852-10.815 10.814-10.815h279.435c5.963 0 10.814 4.852 10.814 10.815v25.041h-255.267c-4.143 0-7.5 3.357-7.5 7.5s3.357 7.5 7.5 7.5h262.768c4.143 0 7.5-3.357 7.5-7.5v-32.541c0-14.234-11.58-25.815-25.814-25.815h-23.52v-2.229c0-12.359-10.056-22.415-22.415-22.415s-22.415 10.056-22.415 22.415v2.229h-51.099v-60.37h51.099v2.229c0 12.359 10.056 22.415 22.415 22.415s22.415-10.056 22.415-22.415v-2.229h59.531c12.302 0 16.514 10.645 22.736 16.604 6.367 7.422 15.628 11.679 25.407 11.679h74.61c4.143 0 7.5-3.357 7.5-7.5v-23.863h10.23c6.439 0 11.679-5.239 11.679-11.679v-21.2c.001-6.441-5.238-11.68-11.678-11.68zm-229.846 105.779c0-4.089 3.326-7.415 7.415-7.415s7.415 3.326 7.415 7.415v2.229h-14.83zm-135.907 2.23v-67.87c0-15.111 12.294-27.405 27.404-27.405s27.404 12.294 27.404 27.405v67.87zm150.737-58.142c0 4.089-3.326 7.415-7.415 7.415s-7.415-3.326-7.415-7.415v-2.229h14.83zm165.435 11.054v-16.363h24.351v16.362h-24.351z"/><path d="m482.077 37.463h-141.654c-4.143 0-7.5 3.357-7.5 7.5s3.357 7.5 7.5 7.5h141.654c8.229 0 14.923 6.694 14.923 14.922v146.229c0 8.229-6.694 14.924-14.924 14.924h-147.323c-5.388 0-10.663 1.486-15.256 4.297l-43.279 26.484 4.852-16.235c1.017-3.406.355-7.143-1.769-9.993s-5.515-4.553-9.069-4.553h-10.265c-8.229 0-14.923-6.694-14.923-14.923v-146.229c0-8.229 6.694-14.923 14.923-14.923h51.668c4.143 0 7.5-3.357 7.5-7.5s-3.357-7.5-7.5-7.5h-51.668c-16.5 0-29.923 13.424-29.923 29.923v146.229c0 16.499 13.423 29.923 29.923 29.923h5.312l-6.77 22.654c-1.262 4.22.179 8.681 3.668 11.367 3.504 2.697 8.189 2.927 11.929.639l53.223-32.569c2.234-1.368 4.802-2.091 7.425-2.091h147.323c16.5 0 29.924-13.424 29.924-29.924v-146.229c-.001-16.499-13.425-29.922-29.924-29.922z"/></g></g></svg>